<?xml version='1.0' encoding='UTF-8' standalone='no'?>
<!-- Created with Fritzing (http://www.fritzing.org/) -->
<svg xmlns:svg='http://www.w3.org/2000/svg' xmlns='http://www.w3.org/2000/svg' version='1.2' baseProfile='tiny' x='0in' y='0in' width='5.78527in' height='2.15841in' viewBox='0 0 416.539 155.406' >
<g partID='59250'><g transform='translate(198.8,25.8056)' ><g  id="breadboard">
 <g  id="icon">
  <path  d="M0,0L0,62.64A2.16,2.16,0,0,1,0,66.96L0,129.6L150.54,129.6L150.54,0L0,0z" stroke="none" fill="#1F7A34" stroke-width="0"/>
  <g transform="matrix(1, 0, 0, 1, 7.2, 8.78112)">
   <g >
    <g  id="silkscreen">
     <path  d="M0,7.164l17.292,0L17.292,0.36l12.756,0l0,0.284l0,6.52L108,7.164l0,51.307c0,0.0920002,0.004,0.182,0.01,0.273c0.15,2.035,1.924,3.563,3.959,3.412l23.811,0l0,36.566l0,0.850003l-8.50399,0c-0.273,-0.021,-0.549,-0.031,-0.823997,-0.025c-4.633,0.0779998,-8.32399,3.896,-8.24602,8.52898L0,108.076L0,7.164z" fill="#CCCCCC"/>
     <path  d="M0,1.164l17.292,0l0,-4.077l12.756,0l0,0.284l0,3.792L108,1.163c0,0,0.004,51.488,0.01,51.58c0.15,2.035,1.924,3.563,3.959,3.412l23.811,0l0,37.416c0,0,-9.05299,-0.031,-9.32803,-0.025c-4.633,0.0779998,-8.32399,3.896,-8.24602,8.52898L0,102.075L0,1.164z" fill="#F2F2F2"/>
     <path  d="M135.779,56.913l-23.811,0c-2.035,0.15,-3.809,-1.377,-3.959,-3.412l0,-0.757001c0.15,2.035,1.924,3.563,3.959,3.412l23.811,0L135.779,56.913z" fill="#FFFFFF" opacity="0.2"/>
    </g>
    <g  id="copper1">
     <g  id="copper0"/>
    </g>
    <line  y1="22.507" y2="22.507" x1="80.2282" x2="17.638" fill="#CB9D7C"/>
    <rect  width="108" stroke="#FFFFFF" y="1.164" stroke-linecap="round" fill="#FFFFFF" height="1.049" opacity="0.2" stroke-width="0.127"/>
    <rect  width="13.064" x="17.164" stroke="#FFFFFF" y="-3.962" stroke-linecap="round" fill="#FFFFFF" height="1.049" opacity="0.2" stroke-width="0.127"/>
    <line  y1="23.557" y2="23.557" x1="80.2282" x2="17.638" fill="#CB9D7C"/>
    <rect  width="13.064" x="17.164" y="-3.962" fill="#DFDB9B" height="32.355"/>
    <g >
     <polygon  points="17.638,91.1002,80.2282,91.1002,85.721,85.5418,85.721,22.624,80.2282,17.069,17.638,17.069,12.145,22.624,12.145,85.5418" fill="#CB9D7C"/>
     <polygon  points="12.145,23.176,17.638,17.622,80.2282,17.622,85.721,23.176,85.721,22.624,80.2282,17.069,17.638,17.069,12.145,22.624" fill="#FFFFFF" opacity="0.2"/>
     <polygon  points="85.721,89.167,80.2282,94.7246,17.638,94.7246,12.145,89.167,12.145,85.5418,17.638,91.1002,80.2282,91.1002,85.721,85.5418" fill="#98765D"/>
     <rect  width="61.907" x="17.979" y="22.778" fill="#FFFFFF" height="62.611"/>
     <circle  r="4.584" enable-background="new    " cx="62.406" cy="58.828" fill="#3D3D3D" opacity="0.3"/>
     <circle  r="5.573" enable-background="new    " cx="62.405" cy="58.828" fill="#3D3D3D" opacity="0.05"/>
     <circle  r="3.995" cx="62.828" cy="58.508" fill="#FFFFFF"/>
     <path  enable-background="new    " d="M61.228,61.282c-0.1,0.177,-0.045,0.367,0.143,0.437c0.44,0.171,0.958997,0.278,1.46,0.28c0.503,0,1.013,-0.105,1.456,-0.28c0.192,-0.069,0.246,-0.26,0.145,-0.437l-1.35,-2.339c-0.244,-0.424,-0.252,-0.437,-0.501,0L61.228,61.282z" fill="#3D3D3D" opacity="0.05"/>
     <g  opacity="0.5">
      <path  enable-background="new    " d="M63.839,60.263c-0.294,0.182,-0.637,0.294,-1.009,0.294c-0.376,0,-0.722002,-0.112,-1.015,-0.294l-0.587,1.021c-0.102,0.178,-0.045,0.367,0.143,0.438c0.44,0.169,0.958997,0.279,1.458,0.279c0.505,0,1.013,-0.104,1.458,-0.279c0.19,-0.071,0.244,-0.261,0.142,-0.438L63.839,60.263z" fill="#3D3D3D" opacity="0.1"/>
     </g>
     <g transform="matrix(1, 0, 0, 1, 50.3159, 82.6798)">
      <text  fill="#CCCCCC" font-size="4.4934" font-family="'Droid Sans'">EM-408 GPS</text>
     </g>
    </g>
    <path  d="M0,102.913l118.205,0c-0.0779998,-4.633,3.613,-8.451,8.24602,-8.52898c0.275,-0.006,9.32803,0.025,9.32803,0.025l0,-0.837c0,0,-9.05299,-0.031,-9.32803,-0.025c-4.633,0.0779998,-8.32399,3.896,-8.24602,8.52898L0,102.076L0,102.913z" fill="#E6E6E6"/>
    <rect  width="5.051" y="102.913" fill="#E6E6E6" height="5.163"/>
    <rect  width="5.051" x="113.154" y="102.913" fill="#E6E6E6" height="5.163"/>
    <rect  width="5.051" x="130.728" y="94.4129" fill="#E6E6E6" height="5.163"/>
    <rect  width="109.019" x="5.051" y="107.205" fill="#E6E6E6" height="0.870998"/>
    <polygon  points="12.145,88.6673,17.638,94.225,80.2282,94.225,85.721,88.6673,85.721,89.167,80.2282,94.7246,17.638,94.7246,12.145,89.167" opacity="0.2"/>
   </g>
  </g>
 </g>
</g>
</g></g><g partID='60720'><g transform='translate(50.4,150.475)' ><g transform='matrix(-1,0,0,-1,0,0)'  ><g  id="breadboard">
 <g  id="icon">
  <path  d="M0.001,0l0,19.362c1.191,0,2.16,0.967,2.16,2.16c0,1.193,-0.969,2.16,-2.16,2.16l0,19.52L21.6,43.202L21.6,0L0.001,0z" fill="#1F7A34"/>
  <g transform="matrix(1, 0, 0, 1, 63.5, 326.05)">
   <g >
    <g transform="rotate(-90)">
     <g >
      <g transform="matrix(1, 0, 0, 1, 288.173, -58.9319)">
       <text  fill="#FFFFFF" font-size="2.75" font-family="'OCRA'">VDD</text>
      </g>
     </g>
    </g>
   </g>
  </g>
  <g transform="matrix(1, 0, 0, 1, 263.5, 326.05)">
   <g >
    <g transform="rotate(-90)">
     <g >
      <g transform="matrix(1, 0, 0, 1, 288.173, -244.532)">
       <text  fill="#FFFFFF" font-size="2.75" font-family="'OCRA'">DOUT</text>
      </g>
     </g>
    </g>
   </g>
  </g>
  <g transform="matrix(1, 0, 0, 1, 263.5, 73.95)">
   <g >
    <g transform="rotate(-90)">
     <g >
      <g transform="matrix(1, 0, 0, 1, 62.5355, -244.407)">
       <text  fill="#FFFFFF" font-size="2.75" font-family="'OCRA'">VSS</text>
      </g>
     </g>
    </g>
   </g>
  </g>
  <g transform="matrix(1, 0, 0, 1, 163.5, 73.95)">
   <g >
    <g transform="rotate(-90)">
     <g >
      <g transform="matrix(1, 0, 0, 1, 62.5355, -158.807)">
       <text  fill="#FFFFFF" font-size="2.75" font-family="'OCRA'">DIN</text>
      </g>
     </g>
    </g>
   </g>
  </g>
  <g >
   <g >
    <rect  width="2.834" x="13.919" y="27.551" fill="#B3B3B3" height="1.542"/>
    <rect  width="2.834" x="4.847" y="27.551" fill="#B3B3B3" height="1.542"/>
    <rect  width="2.834" x="13.919" y="13.8" fill="#B3B3B3" height="1.543"/>
    <rect  width="2.834" x="4.847" y="13.8" fill="#B3B3B3" height="1.543"/>
   </g>
   <rect  width="14.172" x="3.714" y="14.36" fill="#E6E6E6" height="14.174"/>
   <circle  r="5.613" cx="10.801" cy="21.633" fill="#CCCCCC"/>
   <circle  r="4.796" cx="10.801" cy="21.633" fill="#E6E6E6"/>
   <g >
    <g >
     <g >
      <path  d="M8.906,24.6l0,1.438c0.581,0.25,1.223,0.393,1.896,0.393c0.682,0,1.329,-0.146,1.917,-0.404L12.719,24.6L8.906,24.6z" fill="#999999"/>
      <path  d="M13.718,18.581c-0.146,0,-0.645,0,-1,0c-0.354,0,-0.395,0.395,-0.395,0.395l0,1.396l0.625,0.625l2.584,0c-0.156,-1.162,-0.72,-2.184,-1.552,-2.928C13.962,18.321,13.851,18.581,13.718,18.581z" fill="#999999"/>
      <path  d="M9.313,20.372l0,-1.396c0,0,-0.041,-0.395,-0.395,-0.395c-0.355,0,-0.854,0,-1,0c-0.14,0,-0.254,-0.279,-0.268,-0.539c-0.851,0.746,-1.426,1.779,-1.583,2.955l2.619,0L9.313,20.372z" fill="#999999"/>
      <path  d="M13.212,22.6l0.006,1.084c0.008,0,0.061,0,0.334,0c0.418,0,0.438,0.459,0.438,0.459l0,1.049c0.883,-0.793,1.459,-1.9,1.565,-3.154c-0.399,0,-1.375,0,-1.815,0C13.177,22.038,13.212,22.6,13.212,22.6z" fill="#999999"/>
      <path  d="M7.612,25.192l0,-1.049c0,0,0.021,-0.459,0.437,-0.459c0.271,0,0.326,0,0.334,0L8.389,22.6c0,0,0.033,-0.563,-0.529,-0.563c-0.44,0,-1.414,0,-1.813,0C6.152,23.292,6.728,24.399,7.612,25.192z" fill="#999999"/>
      <path  d="M10.145,21.448c0,0,-0.041,0.271,-0.457,0.271c-0.418,0,-0.418,0,-0.418,0l0,1.686c0,0,-0.084,0.392,0.313,0.392c0.181,0,0.526,0,0.854,0c0,0,0.36,0,0.752,0c0.327,0,0.672,0,0.854,0c0.396,0,0.313,-0.392,0.313,-0.392l0,-1.686c0,0,0,0,-0.418,0c-0.416,0,-0.457,-0.271,-0.457,-0.271l0,-3.555l1.052,-0.721c-0.537,-0.209,-1.117,-0.334,-1.729,-0.334c-0.605,0,-1.181,0.123,-1.715,0.328l1.059,0.727l0,3.555L10.145,21.448z" fill="#999999"/>
     </g>
     <rect  width="2.229" x="9.796" y="21.85" fill="#4F423C" height="3.105"/>
    </g>
    <rect  width="0.695" x="10.503" y="20.1" fill="#4D4D4D" height="0.646"/>
    <rect  width="0.961" x="8.093" y="18.999" fill="#4D4D4D" height="0.988"/>
    <g >
     <g >
      <g >
       <path  d="M7.781,22.918c0.075,0.033,1.903,0.82,2.588,1.317l-0.06,0.082c-0.676,-0.491,-2.551,-1.299,-2.567,-1.308L7.781,22.918z" fill="#E6C47E"/>
      </g>
      <g >
       <g >
        <circle  r="0.132" cx="7.76" cy="22.965" fill="#E6C47E"/>
       </g>
      </g>
      <g >
       <g >
        <circle  r="0.131" cx="10.338" cy="24.278" fill="#E6C47E"/>
       </g>
      </g>
     </g>
     <g >
      <g >
       <path  d="M6.938,20.702c0.115,0.059,2.806,1.441,3.101,1.645l-0.058,0.082C9.69,22.23,6.92,20.806,6.893,20.792L6.938,20.702z" fill="#E6C47E"/>
      </g>
      <g >
       <g >
        <circle  r="0.132" cx="6.917" cy="20.747" fill="#E6C47E"/>
       </g>
      </g>
      <g >
       <g >
        <circle  r="0.131" cx="10.01" cy="22.387" fill="#E6C47E"/>
       </g>
      </g>
     </g>
     <g >
      <g >
       <path  d="M8.428,19.825c0.08,0.098,1.986,2.433,2.082,2.734l-0.096,0.031c-0.074,-0.236,-1.517,-2.031,-2.064,-2.703L8.428,19.825z" fill="#E6C47E"/>
      </g>
      <g >
       <g >
        <circle  r="0.132" cx="8.389" cy="19.856" fill="#E6C47E"/>
       </g>
      </g>
      <g >
       <g >
        <circle  r="0.131" cx="10.464" cy="22.575" fill="#E6C47E"/>
       </g>
      </g>
     </g>
     <g >
      <g >
       <path  d="M10.587,17.78l0.098,0.02c-0.016,0.127,-1.153,1.035,-1.83,1.564l-0.063,-0.078C9.458,18.764,10.536,17.893,10.587,17.78z" fill="#E6C47E"/>
      </g>
      <g >
       <g >
        <circle  r="0.131" cx="8.823" cy="19.325" fill="#E6C47E"/>
       </g>
      </g>
      <g >
       <g >
        <circle  r="0.132" cx="10.635" cy="17.793" fill="#E6C47E"/>
       </g>
      </g>
     </g>
     <g >
      <g >
       <path  d="M11.057,18.098c0.665,0.563,1.95,1.643,2.06,1.717l-0.056,0.082c-0.143,-0.094,-1.991,-1.656,-2.068,-1.723L11.057,18.098z" fill="#E6C47E"/>
      </g>
      <g >
       <g >
        <circle  r="0.132" cx="11.025" cy="18.136" fill="#E6C47E"/>
       </g>
      </g>
      <g >
       <g >
        <circle  r="0.132" cx="13.088" cy="19.856" fill="#E6C47E"/>
       </g>
      </g>
     </g>
     <g >
      <g >
       <path  d="M13.409,20.198l0.075,0.064c-0.069,0.086,-1.748,2.074,-2.361,2.357l-0.041,-0.091C11.675,22.256,13.392,20.219,13.409,20.198z" fill="#E6C47E"/>
      </g>
      <g >
       <g >
        <circle  r="0.131" cx="13.448" cy="20.231" fill="#E6C47E"/>
       </g>
      </g>
      <g >
       <g >
        <circle  r="0.131" cx="11.104" cy="22.575" fill="#E6C47E"/>
       </g>
      </g>
     </g>
     <g >
      <g >
       <path  d="M10.906,20.426c0.063,0.393,-0.085,2.08,-0.093,2.152l-0.1,-0.009c0.002,-0.018,0.156,-1.748,0.092,-2.129L10.906,20.426z" fill="#E6C47E"/>
      </g>
      <g >
       <g >
        <circle  r="0.131" cx="10.764" cy="22.575" fill="#E6C47E"/>
       </g>
      </g>
      <g >
       <g >
        <circle  r="0.132" cx="10.855" cy="20.434" fill="#E6C47E"/>
       </g>
      </g>
     </g>
     <g >
      <g >
       <path  d="M13.634,22.482l0.096,0.029c-0.006,0.022,-0.174,0.546,-1.002,0.706c-0.793,0.154,-1.504,0.447,-1.51,0.451l-0.039,-0.095c0.008,-0.002,0.728,-0.3,1.53,-0.454C13.474,22.971,13.628,22.502,13.634,22.482z" fill="#E6C47E"/>
      </g>
      <g >
       <g >
        <circle  r="0.131" cx="11.198" cy="23.622" fill="#E6C47E"/>
       </g>
      </g>
      <g >
       <g >
        <circle  r="0.132" cx="13.682" cy="22.497" fill="#E6C47E"/>
       </g>
      </g>
     </g>
     <g >
      <g >
       <path  d="M14.316,23.745l0.017,0.099c-0.017,0.004,-1.648,0.25,-2.771,0l0.021,-0.099C12.687,23.989,14.3,23.747,14.316,23.745z" fill="#E6C47E"/>
      </g>
      <g >
       <g >
        <circle  r="0.131" cx="14.323" cy="23.793" fill="#E6C47E"/>
       </g>
      </g>
      <g >
       <g >
        <circle  r="0.132" cx="11.573" cy="23.792" fill="#E6C47E"/>
       </g>
      </g>
     </g>
     <g >
      <g >
       <path  d="M11.075,24.323c0.03,0.768,0.65,1.366,0.656,1.372l-0.067,0.072c-0.027,-0.024,-0.657,-0.632,-0.688,-1.44L11.075,24.323z" fill="#E6C47E"/>
      </g>
      <g >
       <g >
        <circle  r="0.132" cx="11.698" cy="25.731" fill="#E6C47E"/>
       </g>
      </g>
      <g >
       <g >
        <circle  r="0.132" cx="11.025" cy="24.325" fill="#E6C47E"/>
       </g>
      </g>
     </g>
    </g>
   </g>
  </g>
 </g>
 <g transform="matrix(1, 0, 0, 1, 34.035, 334.05)">
  <g >
   <rect  width="2.299" id="connector0pin" x="-31.584" y="-295.596" fill="#8D8C8C" height="2.297"/>
   <rect  width="1.184" x="-31.022" y="-295.041" fill="#8C8663" height="1.182"/>
   <polygon  points="-31.584,-293.299,-31.022,-293.86,-31.022,-295.094,-31.584,-295.596" fill="#B8AF82"/>
   <polygon  points="-29.84,-295.039,-31.014,-295.039,-31.584,-295.596,-29.285,-295.596" fill="#80795B"/>
   <polygon  points="-29.84,-293.86,-29.84,-295.039,-29.285,-295.596,-29.285,-293.299" fill="#5E5B43"/>
   <polygon  points="-31.584,-293.299,-31.016,-293.86,-29.84,-293.86,-29.285,-293.299" fill="#9A916C"/>
  </g>
 </g>
 <g transform="matrix(1, 0, 0, 1, 134.035, 34.05)">
  <g >
   <rect  width="2.299" id="connector3pin" x="-131.585" y="-31.598" fill="#8D8C8C" height="2.297"/>
   <rect  width="1.186" x="-131.024" y="-31.041" fill="#8C8663" height="1.182"/>
   <polygon  points="-131.585,-29.301,-131.024,-29.861,-131.024,-31.096,-131.585,-31.598" fill="#B8AF82"/>
   <polygon  points="-129.841,-31.039,-131.015,-31.039,-131.585,-31.598,-129.286,-31.598" fill="#80795B"/>
   <polygon  points="-129.841,-29.861,-129.841,-31.039,-129.286,-31.598,-129.286,-29.301" fill="#5E5B43"/>
   <polygon  points="-131.585,-29.301,-131.018,-29.861,-129.841,-29.861,-129.286,-29.301" fill="#9A916C"/>
  </g>
 </g>
 <g transform="matrix(1, 0, 0, 1, 234.035, 334.05)">
  <g >
   <rect  width="2.299" id="connector1pin" x="-217.184" y="-295.596" fill="#8D8C8C" height="2.297"/>
   <rect  width="1.185" x="-216.624" y="-295.041" fill="#8C8663" height="1.182"/>
   <polygon  points="-217.184,-293.299,-216.624,-293.86,-216.624,-295.094,-217.184,-295.596" fill="#B8AF82"/>
   <polygon  points="-215.442,-295.039,-216.616,-295.039,-217.184,-295.596,-214.885,-295.596" fill="#80795B"/>
   <polygon  points="-215.442,-293.86,-215.442,-295.039,-214.885,-295.596,-214.885,-293.299" fill="#5E5B43"/>
   <polygon  points="-217.184,-293.299,-216.618,-293.86,-215.442,-293.86,-214.885,-293.299" fill="#9A916C"/>
  </g>
 </g>
 <g transform="matrix(1, 0, 0, 1, 234.035, 34.05)">
  <g >
   <rect  width="2.299" id="connector2pin" x="-217.184" y="-31.598" fill="#8D8C8C" height="2.297"/>
   <rect  width="1.185" x="-216.624" y="-31.041" fill="#8C8663" height="1.182"/>
   <polygon  points="-217.184,-29.301,-216.624,-29.861,-216.624,-31.096,-217.184,-31.598" fill="#B8AF82"/>
   <polygon  points="-215.442,-31.039,-216.616,-31.039,-217.184,-31.598,-214.885,-31.598" fill="#80795B"/>
   <polygon  points="-215.442,-29.861,-215.442,-31.039,-214.885,-31.598,-214.885,-29.301" fill="#5E5B43"/>
   <polygon  points="-217.184,-29.301,-216.618,-29.861,-215.442,-29.861,-214.885,-29.301" fill="#9A916C"/>
  </g>
 </g>
</g>
</g></g></g><g partID='60700'><g transform='translate(79.2,150.475)' ><g transform='matrix(-1,0,0,-1,0,0)'  ><g  id="breadboard">
 <g  id="icon">
  <path  d="M0.001,0l0,19.362c1.191,0,2.16,0.967,2.16,2.16c0,1.193,-0.969,2.16,-2.16,2.16l0,19.52L21.6,43.202L21.6,0L0.001,0z" fill="#1F7A34"/>
  <g transform="matrix(1, 0, 0, 1, 63.5, 326.05)">
   <g >
    <g transform="rotate(-90)">
     <g >
      <g transform="matrix(1, 0, 0, 1, 288.173, -58.9319)">
       <text  fill="#FFFFFF" font-size="2.75" font-family="'OCRA'">VDD</text>
      </g>
     </g>
    </g>
   </g>
  </g>
  <g transform="matrix(1, 0, 0, 1, 263.5, 326.05)">
   <g >
    <g transform="rotate(-90)">
     <g >
      <g transform="matrix(1, 0, 0, 1, 288.173, -244.532)">
       <text  fill="#FFFFFF" font-size="2.75" font-family="'OCRA'">DOUT</text>
      </g>
     </g>
    </g>
   </g>
  </g>
  <g transform="matrix(1, 0, 0, 1, 263.5, 73.95)">
   <g >
    <g transform="rotate(-90)">
     <g >
      <g transform="matrix(1, 0, 0, 1, 62.5355, -244.407)">
       <text  fill="#FFFFFF" font-size="2.75" font-family="'OCRA'">VSS</text>
      </g>
     </g>
    </g>
   </g>
  </g>
  <g transform="matrix(1, 0, 0, 1, 163.5, 73.95)">
   <g >
    <g transform="rotate(-90)">
     <g >
      <g transform="matrix(1, 0, 0, 1, 62.5355, -158.807)">
       <text  fill="#FFFFFF" font-size="2.75" font-family="'OCRA'">DIN</text>
      </g>
     </g>
    </g>
   </g>
  </g>
  <g >
   <g >
    <rect  width="2.834" x="13.919" y="27.551" fill="#B3B3B3" height="1.542"/>
    <rect  width="2.834" x="4.847" y="27.551" fill="#B3B3B3" height="1.542"/>
    <rect  width="2.834" x="13.919" y="13.8" fill="#B3B3B3" height="1.543"/>
    <rect  width="2.834" x="4.847" y="13.8" fill="#B3B3B3" height="1.543"/>
   </g>
   <rect  width="14.172" x="3.714" y="14.36" fill="#E6E6E6" height="14.174"/>
   <circle  r="5.613" cx="10.801" cy="21.633" fill="#CCCCCC"/>
   <circle  r="4.796" cx="10.801" cy="21.633" fill="#E6E6E6"/>
   <g >
    <g >
     <g >
      <path  d="M8.906,24.6l0,1.438c0.581,0.25,1.223,0.393,1.896,0.393c0.682,0,1.329,-0.146,1.917,-0.404L12.719,24.6L8.906,24.6z" fill="#999999"/>
      <path  d="M13.718,18.581c-0.146,0,-0.645,0,-1,0c-0.354,0,-0.395,0.395,-0.395,0.395l0,1.396l0.625,0.625l2.584,0c-0.156,-1.162,-0.72,-2.184,-1.552,-2.928C13.962,18.321,13.851,18.581,13.718,18.581z" fill="#999999"/>
      <path  d="M9.313,20.372l0,-1.396c0,0,-0.041,-0.395,-0.395,-0.395c-0.355,0,-0.854,0,-1,0c-0.14,0,-0.254,-0.279,-0.268,-0.539c-0.851,0.746,-1.426,1.779,-1.583,2.955l2.619,0L9.313,20.372z" fill="#999999"/>
      <path  d="M13.212,22.6l0.006,1.084c0.008,0,0.061,0,0.334,0c0.418,0,0.438,0.459,0.438,0.459l0,1.049c0.883,-0.793,1.459,-1.9,1.565,-3.154c-0.399,0,-1.375,0,-1.815,0C13.177,22.038,13.212,22.6,13.212,22.6z" fill="#999999"/>
      <path  d="M7.612,25.192l0,-1.049c0,0,0.021,-0.459,0.437,-0.459c0.271,0,0.326,0,0.334,0L8.389,22.6c0,0,0.033,-0.563,-0.529,-0.563c-0.44,0,-1.414,0,-1.813,0C6.152,23.292,6.728,24.399,7.612,25.192z" fill="#999999"/>
      <path  d="M10.145,21.448c0,0,-0.041,0.271,-0.457,0.271c-0.418,0,-0.418,0,-0.418,0l0,1.686c0,0,-0.084,0.392,0.313,0.392c0.181,0,0.526,0,0.854,0c0,0,0.36,0,0.752,0c0.327,0,0.672,0,0.854,0c0.396,0,0.313,-0.392,0.313,-0.392l0,-1.686c0,0,0,0,-0.418,0c-0.416,0,-0.457,-0.271,-0.457,-0.271l0,-3.555l1.052,-0.721c-0.537,-0.209,-1.117,-0.334,-1.729,-0.334c-0.605,0,-1.181,0.123,-1.715,0.328l1.059,0.727l0,3.555L10.145,21.448z" fill="#999999"/>
     </g>
     <rect  width="2.229" x="9.796" y="21.85" fill="#4F423C" height="3.105"/>
    </g>
    <rect  width="0.695" x="10.503" y="20.1" fill="#4D4D4D" height="0.646"/>
    <rect  width="0.961" x="8.093" y="18.999" fill="#4D4D4D" height="0.988"/>
    <g >
     <g >
      <g >
       <path  d="M7.781,22.918c0.075,0.033,1.903,0.82,2.588,1.317l-0.06,0.082c-0.676,-0.491,-2.551,-1.299,-2.567,-1.308L7.781,22.918z" fill="#E6C47E"/>
      </g>
      <g >
       <g >
        <circle  r="0.132" cx="7.76" cy="22.965" fill="#E6C47E"/>
       </g>
      </g>
      <g >
       <g >
        <circle  r="0.131" cx="10.338" cy="24.278" fill="#E6C47E"/>
       </g>
      </g>
     </g>
     <g >
      <g >
       <path  d="M6.938,20.702c0.115,0.059,2.806,1.441,3.101,1.645l-0.058,0.082C9.69,22.23,6.92,20.806,6.893,20.792L6.938,20.702z" fill="#E6C47E"/>
      </g>
      <g >
       <g >
        <circle  r="0.132" cx="6.917" cy="20.747" fill="#E6C47E"/>
       </g>
      </g>
      <g >
       <g >
        <circle  r="0.131" cx="10.01" cy="22.387" fill="#E6C47E"/>
       </g>
      </g>
     </g>
     <g >
      <g >
       <path  d="M8.428,19.825c0.08,0.098,1.986,2.433,2.082,2.734l-0.096,0.031c-0.074,-0.236,-1.517,-2.031,-2.064,-2.703L8.428,19.825z" fill="#E6C47E"/>
      </g>
      <g >
       <g >
        <circle  r="0.132" cx="8.389" cy="19.856" fill="#E6C47E"/>
       </g>
      </g>
      <g >
       <g >
        <circle  r="0.131" cx="10.464" cy="22.575" fill="#E6C47E"/>
       </g>
      </g>
     </g>
     <g >
      <g >
       <path  d="M10.587,17.78l0.098,0.02c-0.016,0.127,-1.153,1.035,-1.83,1.564l-0.063,-0.078C9.458,18.764,10.536,17.893,10.587,17.78z" fill="#E6C47E"/>
      </g>
      <g >
       <g >
        <circle  r="0.131" cx="8.823" cy="19.325" fill="#E6C47E"/>
       </g>
      </g>
      <g >
       <g >
        <circle  r="0.132" cx="10.635" cy="17.793" fill="#E6C47E"/>
       </g>
      </g>
     </g>
     <g >
      <g >
       <path  d="M11.057,18.098c0.665,0.563,1.95,1.643,2.06,1.717l-0.056,0.082c-0.143,-0.094,-1.991,-1.656,-2.068,-1.723L11.057,18.098z" fill="#E6C47E"/>
      </g>
      <g >
       <g >
        <circle  r="0.132" cx="11.025" cy="18.136" fill="#E6C47E"/>
       </g>
      </g>
      <g >
       <g >
        <circle  r="0.132" cx="13.088" cy="19.856" fill="#E6C47E"/>
       </g>
      </g>
     </g>
     <g >
      <g >
       <path  d="M13.409,20.198l0.075,0.064c-0.069,0.086,-1.748,2.074,-2.361,2.357l-0.041,-0.091C11.675,22.256,13.392,20.219,13.409,20.198z" fill="#E6C47E"/>
      </g>
      <g >
       <g >
        <circle  r="0.131" cx="13.448" cy="20.231" fill="#E6C47E"/>
       </g>
      </g>
      <g >
       <g >
        <circle  r="0.131" cx="11.104" cy="22.575" fill="#E6C47E"/>
       </g>
      </g>
     </g>
     <g >
      <g >
       <path  d="M10.906,20.426c0.063,0.393,-0.085,2.08,-0.093,2.152l-0.1,-0.009c0.002,-0.018,0.156,-1.748,0.092,-2.129L10.906,20.426z" fill="#E6C47E"/>
      </g>
      <g >
       <g >
        <circle  r="0.131" cx="10.764" cy="22.575" fill="#E6C47E"/>
       </g>
      </g>
      <g >
       <g >
        <circle  r="0.132" cx="10.855" cy="20.434" fill="#E6C47E"/>
       </g>
      </g>
     </g>
     <g >
      <g >
       <path  d="M13.634,22.482l0.096,0.029c-0.006,0.022,-0.174,0.546,-1.002,0.706c-0.793,0.154,-1.504,0.447,-1.51,0.451l-0.039,-0.095c0.008,-0.002,0.728,-0.3,1.53,-0.454C13.474,22.971,13.628,22.502,13.634,22.482z" fill="#E6C47E"/>
      </g>
      <g >
       <g >
        <circle  r="0.131" cx="11.198" cy="23.622" fill="#E6C47E"/>
       </g>
      </g>
      <g >
       <g >
        <circle  r="0.132" cx="13.682" cy="22.497" fill="#E6C47E"/>
       </g>
      </g>
     </g>
     <g >
      <g >
       <path  d="M14.316,23.745l0.017,0.099c-0.017,0.004,-1.648,0.25,-2.771,0l0.021,-0.099C12.687,23.989,14.3,23.747,14.316,23.745z" fill="#E6C47E"/>
      </g>
      <g >
       <g >
        <circle  r="0.131" cx="14.323" cy="23.793" fill="#E6C47E"/>
       </g>
      </g>
      <g >
       <g >
        <circle  r="0.132" cx="11.573" cy="23.792" fill="#E6C47E"/>
       </g>
      </g>
     </g>
     <g >
      <g >
       <path  d="M11.075,24.323c0.03,0.768,0.65,1.366,0.656,1.372l-0.067,0.072c-0.027,-0.024,-0.657,-0.632,-0.688,-1.44L11.075,24.323z" fill="#E6C47E"/>
      </g>
      <g >
       <g >
        <circle  r="0.132" cx="11.698" cy="25.731" fill="#E6C47E"/>
       </g>
      </g>
      <g >
       <g >
        <circle  r="0.132" cx="11.025" cy="24.325" fill="#E6C47E"/>
       </g>
      </g>
     </g>
    </g>
   </g>
  </g>
 </g>
 <g transform="matrix(1, 0, 0, 1, 34.035, 334.05)">
  <g >
   <rect  width="2.299" id="connector0pin" x="-31.584" y="-295.596" fill="#8D8C8C" height="2.297"/>
   <rect  width="1.184" x="-31.022" y="-295.041" fill="#8C8663" height="1.182"/>
   <polygon  points="-31.584,-293.299,-31.022,-293.86,-31.022,-295.094,-31.584,-295.596" fill="#B8AF82"/>
   <polygon  points="-29.84,-295.039,-31.014,-295.039,-31.584,-295.596,-29.285,-295.596" fill="#80795B"/>
   <polygon  points="-29.84,-293.86,-29.84,-295.039,-29.285,-295.596,-29.285,-293.299" fill="#5E5B43"/>
   <polygon  points="-31.584,-293.299,-31.016,-293.86,-29.84,-293.86,-29.285,-293.299" fill="#9A916C"/>
  </g>
 </g>
 <g transform="matrix(1, 0, 0, 1, 134.035, 34.05)">
  <g >
   <rect  width="2.299" id="connector3pin" x="-131.585" y="-31.598" fill="#8D8C8C" height="2.297"/>
   <rect  width="1.186" x="-131.024" y="-31.041" fill="#8C8663" height="1.182"/>
   <polygon  points="-131.585,-29.301,-131.024,-29.861,-131.024,-31.096,-131.585,-31.598" fill="#B8AF82"/>
   <polygon  points="-129.841,-31.039,-131.015,-31.039,-131.585,-31.598,-129.286,-31.598" fill="#80795B"/>
   <polygon  points="-129.841,-29.861,-129.841,-31.039,-129.286,-31.598,-129.286,-29.301" fill="#5E5B43"/>
   <polygon  points="-131.585,-29.301,-131.018,-29.861,-129.841,-29.861,-129.286,-29.301" fill="#9A916C"/>
  </g>
 </g>
 <g transform="matrix(1, 0, 0, 1, 234.035, 334.05)">
  <g >
   <rect  width="2.299" id="connector1pin" x="-217.184" y="-295.596" fill="#8D8C8C" height="2.297"/>
   <rect  width="1.185" x="-216.624" y="-295.041" fill="#8C8663" height="1.182"/>
   <polygon  points="-217.184,-293.299,-216.624,-293.86,-216.624,-295.094,-217.184,-295.596" fill="#B8AF82"/>
   <polygon  points="-215.442,-295.039,-216.616,-295.039,-217.184,-295.596,-214.885,-295.596" fill="#80795B"/>
   <polygon  points="-215.442,-293.86,-215.442,-295.039,-214.885,-295.596,-214.885,-293.299" fill="#5E5B43"/>
   <polygon  points="-217.184,-293.299,-216.618,-293.86,-215.442,-293.86,-214.885,-293.299" fill="#9A916C"/>
  </g>
 </g>
 <g transform="matrix(1, 0, 0, 1, 234.035, 34.05)">
  <g >
   <rect  width="2.299" id="connector2pin" x="-217.184" y="-31.598" fill="#8D8C8C" height="2.297"/>
   <rect  width="1.185" x="-216.624" y="-31.041" fill="#8C8663" height="1.182"/>
   <polygon  points="-217.184,-29.301,-216.624,-29.861,-216.624,-31.096,-217.184,-31.598" fill="#B8AF82"/>
   <polygon  points="-215.442,-31.039,-216.616,-31.039,-217.184,-31.598,-214.885,-31.598" fill="#80795B"/>
   <polygon  points="-215.442,-29.861,-215.442,-31.039,-214.885,-31.598,-214.885,-29.301" fill="#5E5B43"/>
   <polygon  points="-217.184,-29.301,-216.618,-29.861,-215.442,-29.861,-214.885,-29.301" fill="#9A916C"/>
  </g>
 </g>
</g>
</g></g></g><g partID='59360'><g transform='translate(108,150.475)' ><g transform='matrix(-1,0,0,-1,0,0)'  ><g  id="breadboard">
 <g  id="icon">
  <path  d="M0.001,0l0,19.362c1.191,0,2.16,0.967,2.16,2.16c0,1.193,-0.969,2.16,-2.16,2.16l0,19.52L21.6,43.202L21.6,0L0.001,0z" fill="#1F7A34"/>
  <g transform="matrix(1, 0, 0, 1, 63.5, 326.05)">
   <g >
    <g transform="rotate(-90)">
     <g >
      <g transform="matrix(1, 0, 0, 1, 288.173, -58.9319)">
       <text  fill="#FFFFFF" font-size="2.75" font-family="'OCRA'">VDD</text>
      </g>
     </g>
    </g>
   </g>
  </g>
  <g transform="matrix(1, 0, 0, 1, 263.5, 326.05)">
   <g >
    <g transform="rotate(-90)">
     <g >
      <g transform="matrix(1, 0, 0, 1, 288.173, -244.532)">
       <text  fill="#FFFFFF" font-size="2.75" font-family="'OCRA'">DOUT</text>
      </g>
     </g>
    </g>
   </g>
  </g>
  <g transform="matrix(1, 0, 0, 1, 263.5, 73.95)">
   <g >
    <g transform="rotate(-90)">
     <g >
      <g transform="matrix(1, 0, 0, 1, 62.5355, -244.407)">
       <text  fill="#FFFFFF" font-size="2.75" font-family="'OCRA'">VSS</text>
      </g>
     </g>
    </g>
   </g>
  </g>
  <g transform="matrix(1, 0, 0, 1, 163.5, 73.95)">
   <g >
    <g transform="rotate(-90)">
     <g >
      <g transform="matrix(1, 0, 0, 1, 62.5355, -158.807)">
       <text  fill="#FFFFFF" font-size="2.75" font-family="'OCRA'">DIN</text>
      </g>
     </g>
    </g>
   </g>
  </g>
  <g >
   <g >
    <rect  width="2.834" x="13.919" y="27.551" fill="#B3B3B3" height="1.542"/>
    <rect  width="2.834" x="4.847" y="27.551" fill="#B3B3B3" height="1.542"/>
    <rect  width="2.834" x="13.919" y="13.8" fill="#B3B3B3" height="1.543"/>
    <rect  width="2.834" x="4.847" y="13.8" fill="#B3B3B3" height="1.543"/>
   </g>
   <rect  width="14.172" x="3.714" y="14.36" fill="#E6E6E6" height="14.174"/>
   <circle  r="5.613" cx="10.801" cy="21.633" fill="#CCCCCC"/>
   <circle  r="4.796" cx="10.801" cy="21.633" fill="#E6E6E6"/>
   <g >
    <g >
     <g >
      <path  d="M8.906,24.6l0,1.438c0.581,0.25,1.223,0.393,1.896,0.393c0.682,0,1.329,-0.146,1.917,-0.404L12.719,24.6L8.906,24.6z" fill="#999999"/>
      <path  d="M13.718,18.581c-0.146,0,-0.645,0,-1,0c-0.354,0,-0.395,0.395,-0.395,0.395l0,1.396l0.625,0.625l2.584,0c-0.156,-1.162,-0.72,-2.184,-1.552,-2.928C13.962,18.321,13.851,18.581,13.718,18.581z" fill="#999999"/>
      <path  d="M9.313,20.372l0,-1.396c0,0,-0.041,-0.395,-0.395,-0.395c-0.355,0,-0.854,0,-1,0c-0.14,0,-0.254,-0.279,-0.268,-0.539c-0.851,0.746,-1.426,1.779,-1.583,2.955l2.619,0L9.313,20.372z" fill="#999999"/>
      <path  d="M13.212,22.6l0.006,1.084c0.008,0,0.061,0,0.334,0c0.418,0,0.438,0.459,0.438,0.459l0,1.049c0.883,-0.793,1.459,-1.9,1.565,-3.154c-0.399,0,-1.375,0,-1.815,0C13.177,22.038,13.212,22.6,13.212,22.6z" fill="#999999"/>
      <path  d="M7.612,25.192l0,-1.049c0,0,0.021,-0.459,0.437,-0.459c0.271,0,0.326,0,0.334,0L8.389,22.6c0,0,0.033,-0.563,-0.529,-0.563c-0.44,0,-1.414,0,-1.813,0C6.152,23.292,6.728,24.399,7.612,25.192z" fill="#999999"/>
      <path  d="M10.145,21.448c0,0,-0.041,0.271,-0.457,0.271c-0.418,0,-0.418,0,-0.418,0l0,1.686c0,0,-0.084,0.392,0.313,0.392c0.181,0,0.526,0,0.854,0c0,0,0.36,0,0.752,0c0.327,0,0.672,0,0.854,0c0.396,0,0.313,-0.392,0.313,-0.392l0,-1.686c0,0,0,0,-0.418,0c-0.416,0,-0.457,-0.271,-0.457,-0.271l0,-3.555l1.052,-0.721c-0.537,-0.209,-1.117,-0.334,-1.729,-0.334c-0.605,0,-1.181,0.123,-1.715,0.328l1.059,0.727l0,3.555L10.145,21.448z" fill="#999999"/>
     </g>
     <rect  width="2.229" x="9.796" y="21.85" fill="#4F423C" height="3.105"/>
    </g>
    <rect  width="0.695" x="10.503" y="20.1" fill="#4D4D4D" height="0.646"/>
    <rect  width="0.961" x="8.093" y="18.999" fill="#4D4D4D" height="0.988"/>
    <g >
     <g >
      <g >
       <path  d="M7.781,22.918c0.075,0.033,1.903,0.82,2.588,1.317l-0.06,0.082c-0.676,-0.491,-2.551,-1.299,-2.567,-1.308L7.781,22.918z" fill="#E6C47E"/>
      </g>
      <g >
       <g >
        <circle  r="0.132" cx="7.76" cy="22.965" fill="#E6C47E"/>
       </g>
      </g>
      <g >
       <g >
        <circle  r="0.131" cx="10.338" cy="24.278" fill="#E6C47E"/>
       </g>
      </g>
     </g>
     <g >
      <g >
       <path  d="M6.938,20.702c0.115,0.059,2.806,1.441,3.101,1.645l-0.058,0.082C9.69,22.23,6.92,20.806,6.893,20.792L6.938,20.702z" fill="#E6C47E"/>
      </g>
      <g >
       <g >
        <circle  r="0.132" cx="6.917" cy="20.747" fill="#E6C47E"/>
       </g>
      </g>
      <g >
       <g >
        <circle  r="0.131" cx="10.01" cy="22.387" fill="#E6C47E"/>
       </g>
      </g>
     </g>
     <g >
      <g >
       <path  d="M8.428,19.825c0.08,0.098,1.986,2.433,2.082,2.734l-0.096,0.031c-0.074,-0.236,-1.517,-2.031,-2.064,-2.703L8.428,19.825z" fill="#E6C47E"/>
      </g>
      <g >
       <g >
        <circle  r="0.132" cx="8.389" cy="19.856" fill="#E6C47E"/>
       </g>
      </g>
      <g >
       <g >
        <circle  r="0.131" cx="10.464" cy="22.575" fill="#E6C47E"/>
       </g>
      </g>
     </g>
     <g >
      <g >
       <path  d="M10.587,17.78l0.098,0.02c-0.016,0.127,-1.153,1.035,-1.83,1.564l-0.063,-0.078C9.458,18.764,10.536,17.893,10.587,17.78z" fill="#E6C47E"/>
      </g>
      <g >
       <g >
        <circle  r="0.131" cx="8.823" cy="19.325" fill="#E6C47E"/>
       </g>
      </g>
      <g >
       <g >
        <circle  r="0.132" cx="10.635" cy="17.793" fill="#E6C47E"/>
       </g>
      </g>
     </g>
     <g >
      <g >
       <path  d="M11.057,18.098c0.665,0.563,1.95,1.643,2.06,1.717l-0.056,0.082c-0.143,-0.094,-1.991,-1.656,-2.068,-1.723L11.057,18.098z" fill="#E6C47E"/>
      </g>
      <g >
       <g >
        <circle  r="0.132" cx="11.025" cy="18.136" fill="#E6C47E"/>
       </g>
      </g>
      <g >
       <g >
        <circle  r="0.132" cx="13.088" cy="19.856" fill="#E6C47E"/>
       </g>
      </g>
     </g>
     <g >
      <g >
       <path  d="M13.409,20.198l0.075,0.064c-0.069,0.086,-1.748,2.074,-2.361,2.357l-0.041,-0.091C11.675,22.256,13.392,20.219,13.409,20.198z" fill="#E6C47E"/>
      </g>
      <g >
       <g >
        <circle  r="0.131" cx="13.448" cy="20.231" fill="#E6C47E"/>
       </g>
      </g>
      <g >
       <g >
        <circle  r="0.131" cx="11.104" cy="22.575" fill="#E6C47E"/>
       </g>
      </g>
     </g>
     <g >
      <g >
       <path  d="M10.906,20.426c0.063,0.393,-0.085,2.08,-0.093,2.152l-0.1,-0.009c0.002,-0.018,0.156,-1.748,0.092,-2.129L10.906,20.426z" fill="#E6C47E"/>
      </g>
      <g >
       <g >
        <circle  r="0.131" cx="10.764" cy="22.575" fill="#E6C47E"/>
       </g>
      </g>
      <g >
       <g >
        <circle  r="0.132" cx="10.855" cy="20.434" fill="#E6C47E"/>
       </g>
      </g>
     </g>
     <g >
      <g >
       <path  d="M13.634,22.482l0.096,0.029c-0.006,0.022,-0.174,0.546,-1.002,0.706c-0.793,0.154,-1.504,0.447,-1.51,0.451l-0.039,-0.095c0.008,-0.002,0.728,-0.3,1.53,-0.454C13.474,22.971,13.628,22.502,13.634,22.482z" fill="#E6C47E"/>
      </g>
      <g >
       <g >
        <circle  r="0.131" cx="11.198" cy="23.622" fill="#E6C47E"/>
       </g>
      </g>
      <g >
       <g >
        <circle  r="0.132" cx="13.682" cy="22.497" fill="#E6C47E"/>
       </g>
      </g>
     </g>
     <g >
      <g >
       <path  d="M14.316,23.745l0.017,0.099c-0.017,0.004,-1.648,0.25,-2.771,0l0.021,-0.099C12.687,23.989,14.3,23.747,14.316,23.745z" fill="#E6C47E"/>
      </g>
      <g >
       <g >
        <circle  r="0.131" cx="14.323" cy="23.793" fill="#E6C47E"/>
       </g>
      </g>
      <g >
       <g >
        <circle  r="0.132" cx="11.573" cy="23.792" fill="#E6C47E"/>
       </g>
      </g>
     </g>
     <g >
      <g >
       <path  d="M11.075,24.323c0.03,0.768,0.65,1.366,0.656,1.372l-0.067,0.072c-0.027,-0.024,-0.657,-0.632,-0.688,-1.44L11.075,24.323z" fill="#E6C47E"/>
      </g>
      <g >
       <g >
        <circle  r="0.132" cx="11.698" cy="25.731" fill="#E6C47E"/>
       </g>
      </g>
      <g >
       <g >
        <circle  r="0.132" cx="11.025" cy="24.325" fill="#E6C47E"/>
       </g>
      </g>
     </g>
    </g>
   </g>
  </g>
 </g>
 <g transform="matrix(1, 0, 0, 1, 34.035, 334.05)">
  <g >
   <rect  width="2.299" id="connector0pin" x="-31.584" y="-295.596" fill="#8D8C8C" height="2.297"/>
   <rect  width="1.184" x="-31.022" y="-295.041" fill="#8C8663" height="1.182"/>
   <polygon  points="-31.584,-293.299,-31.022,-293.86,-31.022,-295.094,-31.584,-295.596" fill="#B8AF82"/>
   <polygon  points="-29.84,-295.039,-31.014,-295.039,-31.584,-295.596,-29.285,-295.596" fill="#80795B"/>
   <polygon  points="-29.84,-293.86,-29.84,-295.039,-29.285,-295.596,-29.285,-293.299" fill="#5E5B43"/>
   <polygon  points="-31.584,-293.299,-31.016,-293.86,-29.84,-293.86,-29.285,-293.299" fill="#9A916C"/>
  </g>
 </g>
 <g transform="matrix(1, 0, 0, 1, 134.035, 34.05)">
  <g >
   <rect  width="2.299" id="connector3pin" x="-131.585" y="-31.598" fill="#8D8C8C" height="2.297"/>
   <rect  width="1.186" x="-131.024" y="-31.041" fill="#8C8663" height="1.182"/>
   <polygon  points="-131.585,-29.301,-131.024,-29.861,-131.024,-31.096,-131.585,-31.598" fill="#B8AF82"/>
   <polygon  points="-129.841,-31.039,-131.015,-31.039,-131.585,-31.598,-129.286,-31.598" fill="#80795B"/>
   <polygon  points="-129.841,-29.861,-129.841,-31.039,-129.286,-31.598,-129.286,-29.301" fill="#5E5B43"/>
   <polygon  points="-131.585,-29.301,-131.018,-29.861,-129.841,-29.861,-129.286,-29.301" fill="#9A916C"/>
  </g>
 </g>
 <g transform="matrix(1, 0, 0, 1, 234.035, 334.05)">
  <g >
   <rect  width="2.299" id="connector1pin" x="-217.184" y="-295.596" fill="#8D8C8C" height="2.297"/>
   <rect  width="1.185" x="-216.624" y="-295.041" fill="#8C8663" height="1.182"/>
   <polygon  points="-217.184,-293.299,-216.624,-293.86,-216.624,-295.094,-217.184,-295.596" fill="#B8AF82"/>
   <polygon  points="-215.442,-295.039,-216.616,-295.039,-217.184,-295.596,-214.885,-295.596" fill="#80795B"/>
   <polygon  points="-215.442,-293.86,-215.442,-295.039,-214.885,-295.596,-214.885,-293.299" fill="#5E5B43"/>
   <polygon  points="-217.184,-293.299,-216.618,-293.86,-215.442,-293.86,-214.885,-293.299" fill="#9A916C"/>
  </g>
 </g>
 <g transform="matrix(1, 0, 0, 1, 234.035, 34.05)">
  <g >
   <rect  width="2.299" id="connector2pin" x="-217.184" y="-31.598" fill="#8D8C8C" height="2.297"/>
   <rect  width="1.185" x="-216.624" y="-31.041" fill="#8C8663" height="1.182"/>
   <polygon  points="-217.184,-29.301,-216.624,-29.861,-216.624,-31.096,-217.184,-31.598" fill="#B8AF82"/>
   <polygon  points="-215.442,-31.039,-216.616,-31.039,-217.184,-31.598,-214.885,-31.598" fill="#80795B"/>
   <polygon  points="-215.442,-29.861,-215.442,-31.039,-214.885,-31.598,-214.885,-29.301" fill="#5E5B43"/>
   <polygon  points="-217.184,-29.301,-216.618,-29.861,-215.442,-29.861,-214.885,-29.301" fill="#9A916C"/>
  </g>
 </g>
</g>
</g></g></g><g partID='60740'><g transform='translate(21.6,150.475)' ><g transform='matrix(-1,0,0,-1,0,0)'  ><g  id="breadboard">
 <g  id="icon">
  <path  d="M0.001,0l0,19.362c1.191,0,2.16,0.967,2.16,2.16c0,1.193,-0.969,2.16,-2.16,2.16l0,19.52L21.6,43.202L21.6,0L0.001,0z" fill="#1F7A34"/>
  <g transform="matrix(1, 0, 0, 1, 63.5, 326.05)">
   <g >
    <g transform="rotate(-90)">
     <g >
      <g transform="matrix(1, 0, 0, 1, 288.173, -58.9319)">
       <text  fill="#FFFFFF" font-size="2.75" font-family="'OCRA'">VDD</text>
      </g>
     </g>
    </g>
   </g>
  </g>
  <g transform="matrix(1, 0, 0, 1, 263.5, 326.05)">
   <g >
    <g transform="rotate(-90)">
     <g >
      <g transform="matrix(1, 0, 0, 1, 288.173, -244.532)">
       <text  fill="#FFFFFF" font-size="2.75" font-family="'OCRA'">DOUT</text>
      </g>
     </g>
    </g>
   </g>
  </g>
  <g transform="matrix(1, 0, 0, 1, 263.5, 73.95)">
   <g >
    <g transform="rotate(-90)">
     <g >
      <g transform="matrix(1, 0, 0, 1, 62.5355, -244.407)">
       <text  fill="#FFFFFF" font-size="2.75" font-family="'OCRA'">VSS</text>
      </g>
     </g>
    </g>
   </g>
  </g>
  <g transform="matrix(1, 0, 0, 1, 163.5, 73.95)">
   <g >
    <g transform="rotate(-90)">
     <g >
      <g transform="matrix(1, 0, 0, 1, 62.5355, -158.807)">
       <text  fill="#FFFFFF" font-size="2.75" font-family="'OCRA'">DIN</text>
      </g>
     </g>
    </g>
   </g>
  </g>
  <g >
   <g >
    <rect  width="2.834" x="13.919" y="27.551" fill="#B3B3B3" height="1.542"/>
    <rect  width="2.834" x="4.847" y="27.551" fill="#B3B3B3" height="1.542"/>
    <rect  width="2.834" x="13.919" y="13.8" fill="#B3B3B3" height="1.543"/>
    <rect  width="2.834" x="4.847" y="13.8" fill="#B3B3B3" height="1.543"/>
   </g>
   <rect  width="14.172" x="3.714" y="14.36" fill="#E6E6E6" height="14.174"/>
   <circle  r="5.613" cx="10.801" cy="21.633" fill="#CCCCCC"/>
   <circle  r="4.796" cx="10.801" cy="21.633" fill="#E6E6E6"/>
   <g >
    <g >
     <g >
      <path  d="M8.906,24.6l0,1.438c0.581,0.25,1.223,0.393,1.896,0.393c0.682,0,1.329,-0.146,1.917,-0.404L12.719,24.6L8.906,24.6z" fill="#999999"/>
      <path  d="M13.718,18.581c-0.146,0,-0.645,0,-1,0c-0.354,0,-0.395,0.395,-0.395,0.395l0,1.396l0.625,0.625l2.584,0c-0.156,-1.162,-0.72,-2.184,-1.552,-2.928C13.962,18.321,13.851,18.581,13.718,18.581z" fill="#999999"/>
      <path  d="M9.313,20.372l0,-1.396c0,0,-0.041,-0.395,-0.395,-0.395c-0.355,0,-0.854,0,-1,0c-0.14,0,-0.254,-0.279,-0.268,-0.539c-0.851,0.746,-1.426,1.779,-1.583,2.955l2.619,0L9.313,20.372z" fill="#999999"/>
      <path  d="M13.212,22.6l0.006,1.084c0.008,0,0.061,0,0.334,0c0.418,0,0.438,0.459,0.438,0.459l0,1.049c0.883,-0.793,1.459,-1.9,1.565,-3.154c-0.399,0,-1.375,0,-1.815,0C13.177,22.038,13.212,22.6,13.212,22.6z" fill="#999999"/>
      <path  d="M7.612,25.192l0,-1.049c0,0,0.021,-0.459,0.437,-0.459c0.271,0,0.326,0,0.334,0L8.389,22.6c0,0,0.033,-0.563,-0.529,-0.563c-0.44,0,-1.414,0,-1.813,0C6.152,23.292,6.728,24.399,7.612,25.192z" fill="#999999"/>
      <path  d="M10.145,21.448c0,0,-0.041,0.271,-0.457,0.271c-0.418,0,-0.418,0,-0.418,0l0,1.686c0,0,-0.084,0.392,0.313,0.392c0.181,0,0.526,0,0.854,0c0,0,0.36,0,0.752,0c0.327,0,0.672,0,0.854,0c0.396,0,0.313,-0.392,0.313,-0.392l0,-1.686c0,0,0,0,-0.418,0c-0.416,0,-0.457,-0.271,-0.457,-0.271l0,-3.555l1.052,-0.721c-0.537,-0.209,-1.117,-0.334,-1.729,-0.334c-0.605,0,-1.181,0.123,-1.715,0.328l1.059,0.727l0,3.555L10.145,21.448z" fill="#999999"/>
     </g>
     <rect  width="2.229" x="9.796" y="21.85" fill="#4F423C" height="3.105"/>
    </g>
    <rect  width="0.695" x="10.503" y="20.1" fill="#4D4D4D" height="0.646"/>
    <rect  width="0.961" x="8.093" y="18.999" fill="#4D4D4D" height="0.988"/>
    <g >
     <g >
      <g >
       <path  d="M7.781,22.918c0.075,0.033,1.903,0.82,2.588,1.317l-0.06,0.082c-0.676,-0.491,-2.551,-1.299,-2.567,-1.308L7.781,22.918z" fill="#E6C47E"/>
      </g>
      <g >
       <g >
        <circle  r="0.132" cx="7.76" cy="22.965" fill="#E6C47E"/>
       </g>
      </g>
      <g >
       <g >
        <circle  r="0.131" cx="10.338" cy="24.278" fill="#E6C47E"/>
       </g>
      </g>
     </g>
     <g >
      <g >
       <path  d="M6.938,20.702c0.115,0.059,2.806,1.441,3.101,1.645l-0.058,0.082C9.69,22.23,6.92,20.806,6.893,20.792L6.938,20.702z" fill="#E6C47E"/>
      </g>
      <g >
       <g >
        <circle  r="0.132" cx="6.917" cy="20.747" fill="#E6C47E"/>
       </g>
      </g>
      <g >
       <g >
        <circle  r="0.131" cx="10.01" cy="22.387" fill="#E6C47E"/>
       </g>
      </g>
     </g>
     <g >
      <g >
       <path  d="M8.428,19.825c0.08,0.098,1.986,2.433,2.082,2.734l-0.096,0.031c-0.074,-0.236,-1.517,-2.031,-2.064,-2.703L8.428,19.825z" fill="#E6C47E"/>
      </g>
      <g >
       <g >
        <circle  r="0.132" cx="8.389" cy="19.856" fill="#E6C47E"/>
       </g>
      </g>
      <g >
       <g >
        <circle  r="0.131" cx="10.464" cy="22.575" fill="#E6C47E"/>
       </g>
      </g>
     </g>
     <g >
      <g >
       <path  d="M10.587,17.78l0.098,0.02c-0.016,0.127,-1.153,1.035,-1.83,1.564l-0.063,-0.078C9.458,18.764,10.536,17.893,10.587,17.78z" fill="#E6C47E"/>
      </g>
      <g >
       <g >
        <circle  r="0.131" cx="8.823" cy="19.325" fill="#E6C47E"/>
       </g>
      </g>
      <g >
       <g >
        <circle  r="0.132" cx="10.635" cy="17.793" fill="#E6C47E"/>
       </g>
      </g>
     </g>
     <g >
      <g >
       <path  d="M11.057,18.098c0.665,0.563,1.95,1.643,2.06,1.717l-0.056,0.082c-0.143,-0.094,-1.991,-1.656,-2.068,-1.723L11.057,18.098z" fill="#E6C47E"/>
      </g>
      <g >
       <g >
        <circle  r="0.132" cx="11.025" cy="18.136" fill="#E6C47E"/>
       </g>
      </g>
      <g >
       <g >
        <circle  r="0.132" cx="13.088" cy="19.856" fill="#E6C47E"/>
       </g>
      </g>
     </g>
     <g >
      <g >
       <path  d="M13.409,20.198l0.075,0.064c-0.069,0.086,-1.748,2.074,-2.361,2.357l-0.041,-0.091C11.675,22.256,13.392,20.219,13.409,20.198z" fill="#E6C47E"/>
      </g>
      <g >
       <g >
        <circle  r="0.131" cx="13.448" cy="20.231" fill="#E6C47E"/>
       </g>
      </g>
      <g >
       <g >
        <circle  r="0.131" cx="11.104" cy="22.575" fill="#E6C47E"/>
       </g>
      </g>
     </g>
     <g >
      <g >
       <path  d="M10.906,20.426c0.063,0.393,-0.085,2.08,-0.093,2.152l-0.1,-0.009c0.002,-0.018,0.156,-1.748,0.092,-2.129L10.906,20.426z" fill="#E6C47E"/>
      </g>
      <g >
       <g >
        <circle  r="0.131" cx="10.764" cy="22.575" fill="#E6C47E"/>
       </g>
      </g>
      <g >
       <g >
        <circle  r="0.132" cx="10.855" cy="20.434" fill="#E6C47E"/>
       </g>
      </g>
     </g>
     <g >
      <g >
       <path  d="M13.634,22.482l0.096,0.029c-0.006,0.022,-0.174,0.546,-1.002,0.706c-0.793,0.154,-1.504,0.447,-1.51,0.451l-0.039,-0.095c0.008,-0.002,0.728,-0.3,1.53,-0.454C13.474,22.971,13.628,22.502,13.634,22.482z" fill="#E6C47E"/>
      </g>
      <g >
       <g >
        <circle  r="0.131" cx="11.198" cy="23.622" fill="#E6C47E"/>
       </g>
      </g>
      <g >
       <g >
        <circle  r="0.132" cx="13.682" cy="22.497" fill="#E6C47E"/>
       </g>
      </g>
     </g>
     <g >
      <g >
       <path  d="M14.316,23.745l0.017,0.099c-0.017,0.004,-1.648,0.25,-2.771,0l0.021,-0.099C12.687,23.989,14.3,23.747,14.316,23.745z" fill="#E6C47E"/>
      </g>
      <g >
       <g >
        <circle  r="0.131" cx="14.323" cy="23.793" fill="#E6C47E"/>
       </g>
      </g>
      <g >
       <g >
        <circle  r="0.132" cx="11.573" cy="23.792" fill="#E6C47E"/>
       </g>
      </g>
     </g>
     <g >
      <g >
       <path  d="M11.075,24.323c0.03,0.768,0.65,1.366,0.656,1.372l-0.067,0.072c-0.027,-0.024,-0.657,-0.632,-0.688,-1.44L11.075,24.323z" fill="#E6C47E"/>
      </g>
      <g >
       <g >
        <circle  r="0.132" cx="11.698" cy="25.731" fill="#E6C47E"/>
       </g>
      </g>
      <g >
       <g >
        <circle  r="0.132" cx="11.025" cy="24.325" fill="#E6C47E"/>
       </g>
      </g>
     </g>
    </g>
   </g>
  </g>
 </g>
 <g transform="matrix(1, 0, 0, 1, 34.035, 334.05)">
  <g >
   <rect  width="2.299" id="connector0pin" x="-31.584" y="-295.596" fill="#8D8C8C" height="2.297"/>
   <rect  width="1.184" x="-31.022" y="-295.041" fill="#8C8663" height="1.182"/>
   <polygon  points="-31.584,-293.299,-31.022,-293.86,-31.022,-295.094,-31.584,-295.596" fill="#B8AF82"/>
   <polygon  points="-29.84,-295.039,-31.014,-295.039,-31.584,-295.596,-29.285,-295.596" fill="#80795B"/>
   <polygon  points="-29.84,-293.86,-29.84,-295.039,-29.285,-295.596,-29.285,-293.299" fill="#5E5B43"/>
   <polygon  points="-31.584,-293.299,-31.016,-293.86,-29.84,-293.86,-29.285,-293.299" fill="#9A916C"/>
  </g>
 </g>
 <g transform="matrix(1, 0, 0, 1, 134.035, 34.05)">
  <g >
   <rect  width="2.299" id="connector3pin" x="-131.585" y="-31.598" fill="#8D8C8C" height="2.297"/>
   <rect  width="1.186" x="-131.024" y="-31.041" fill="#8C8663" height="1.182"/>
   <polygon  points="-131.585,-29.301,-131.024,-29.861,-131.024,-31.096,-131.585,-31.598" fill="#B8AF82"/>
   <polygon  points="-129.841,-31.039,-131.015,-31.039,-131.585,-31.598,-129.286,-31.598" fill="#80795B"/>
   <polygon  points="-129.841,-29.861,-129.841,-31.039,-129.286,-31.598,-129.286,-29.301" fill="#5E5B43"/>
   <polygon  points="-131.585,-29.301,-131.018,-29.861,-129.841,-29.861,-129.286,-29.301" fill="#9A916C"/>
  </g>
 </g>
 <g transform="matrix(1, 0, 0, 1, 234.035, 334.05)">
  <g >
   <rect  width="2.299" id="connector1pin" x="-217.184" y="-295.596" fill="#8D8C8C" height="2.297"/>
   <rect  width="1.185" x="-216.624" y="-295.041" fill="#8C8663" height="1.182"/>
   <polygon  points="-217.184,-293.299,-216.624,-293.86,-216.624,-295.094,-217.184,-295.596" fill="#B8AF82"/>
   <polygon  points="-215.442,-295.039,-216.616,-295.039,-217.184,-295.596,-214.885,-295.596" fill="#80795B"/>
   <polygon  points="-215.442,-293.86,-215.442,-295.039,-214.885,-295.596,-214.885,-293.299" fill="#5E5B43"/>
   <polygon  points="-217.184,-293.299,-216.618,-293.86,-215.442,-293.86,-214.885,-293.299" fill="#9A916C"/>
  </g>
 </g>
 <g transform="matrix(1, 0, 0, 1, 234.035, 34.05)">
  <g >
   <rect  width="2.299" id="connector2pin" x="-217.184" y="-31.598" fill="#8D8C8C" height="2.297"/>
   <rect  width="1.185" x="-216.624" y="-31.041" fill="#8C8663" height="1.182"/>
   <polygon  points="-217.184,-29.301,-216.624,-29.861,-216.624,-31.096,-217.184,-31.598" fill="#B8AF82"/>
   <polygon  points="-215.442,-31.039,-216.616,-31.039,-217.184,-31.598,-214.885,-31.598" fill="#80795B"/>
   <polygon  points="-215.442,-29.861,-215.442,-31.039,-214.885,-31.598,-214.885,-29.301" fill="#5E5B43"/>
   <polygon  points="-217.184,-29.301,-216.618,-29.861,-215.442,-29.861,-214.885,-29.301" fill="#9A916C"/>
  </g>
 </g>
</g>
</g></g></g><g partID='59920'><g transform='translate(1.39894,67.8929)' ><g transform='matrix(0,-1,1,0,0,0)'  ><g  id="breadboard">
 <metadata  id="metadata4509">
  <rdf:RDF xmlns:rdf="http://www.w3.org/1999/02/22-rdf-syntax-ns#">
   <cc:Work xmlns:cc="http://creativecommons.org/ns#" rdf:about="" xmlns:rdf="http://www.w3.org/1999/02/22-rdf-syntax-ns#">
    <dc:format xmlns:dc="http://purl.org/dc/elements/1.1/">image/svg+xml</dc:format>
    <dc:type xmlns:dc="http://purl.org/dc/elements/1.1/" rdf:resource="http://purl.org/dc/dcmitype/StillImage" xmlns:rdf="http://www.w3.org/1999/02/22-rdf-syntax-ns#"/>
    <dc:title xmlns:dc="http://purl.org/dc/elements/1.1/"/>
   </cc:Work>
  </rdf:RDF>
 </metadata>
 <defs  id="defs4507">
  <linearGradient  id="linearGradient7782" paint="solid">
   <stop  id="stop7784" style="stop-color:#1d1d1d;stop-opacity:1;" offset="0"/>
  </linearGradient>
 </defs>
 <g  id="g3645">
  <g transform="matrix(1, 0, 0, 1, 0, -0.00708618)">
   <g  id="g3521">
    <path  id="path5493" fill-opacity="1" d="m0,0,0,28.35,0,28.35,28.35,0,28.35,0,0,-28.35L56.7,0,28.35,0zm7.375,51.25c0.782766,0,1.425,0.617234,1.425,1.4,0,0.782766,-0.642234,1.425,-1.425,1.425,-0.782766,0,-1.425,-0.642234,-1.425,-1.425,0,-0.782766,0.642234,-1.4,1.425,-1.4zm7.2,0c0.782766,0,1.425,0.617234,1.425,1.4,0,0.782766,-0.642234,1.425,-1.425,1.425,-0.782766,0,-1.425,-0.642234,-1.425,-1.425,0,-0.782766,0.642234,-1.4,1.425,-1.4zm7.2,0c0.782766,0,1.425,0.617234,1.425,1.4,0,0.782766,-0.642234,1.425,-1.425,1.425,-0.782766,0,-1.425,-0.642234,-1.425,-1.425,0,-0.782766,0.642234,-1.4,1.425,-1.4zm7.2,0c0.782766,0,1.4,0.617234,1.4,1.4,0,0.782766,-0.617234,1.425,-1.4,1.425,-0.782766,0,-1.425,-0.642234,-1.425,-1.425,0,-0.782766,0.642234,-1.4,1.425,-1.4zm7.2,0c0.782766,0,1.4,0.617234,1.4,1.4,0,0.782766,-0.617234,1.425,-1.4,1.425,-0.782766,0,-1.425,-0.642234,-1.425,-1.425,0,-0.782766,0.642234,-1.4,1.425,-1.4z" stroke="none" fill="#c62717"/>
    <g transform="matrix(-0.15, 0, 0, 0.15, 354.43, -354.447)">
     <g  id="g10738">
      <path  id="path4533" fill-opacity="1" d="m2020.8,2629.6,0,9.6" stroke="#c1c1c1" fill="#1d1d1d" stroke-opacity="1" style="stroke-linecap:round;stroke-linejoin:round;stroke-miterlimit:10;stroke-dasharray:none" stroke-width="4.784"/>
      <path  id="path5047" fill-opacity="1" d="m2027.2,2627.2,13.5998,0,0,14.3998,-13.5998,0,0,-14.3998z" stroke="none" fill="#1d1d1d" style="fill-rule:nonzero;"/>
      <path  id="path5049" fill-opacity="1" d="m2000.8,2627.2,13.5998,0,0,14.3998,-13.5998,0,0,-14.3998z" stroke="none" fill="#1d1d1d" style="fill-rule:nonzero;"/>
     </g>
    </g>
    <g transform="matrix(0, 0.15, 0.15, 0, -367.55, -278.007)">
     <g  id="g10752">
      <path  id="path5051" fill-opacity="1" d="m2012,2676,112.8,0,0,46.3998,-112.8,0,0,-46.3998z" stroke="none" fill="#1d1d1d" style="fill-rule:nonzero;"/>
      <path  id="path5053" fill-opacity="1" d="m1948,2665.6,46.3998,0,0,19.1998,-46.3998,0,0,-19.1998z" stroke="none" fill="#8c8c8c" style="fill-rule:nonzero;"/>
      <path  id="path5055" fill-opacity="1" d="m1948,2713.6,46.3998,0,0,19.1998,-46.3998,0,0,-19.1998z" stroke="none" fill="#8c8c8c" style="fill-rule:nonzero;"/>
     </g>
    </g>
    <g transform="matrix(0, -1.25, 1.25, 0, 48.0927, 11.1475)">
     <g  id="sfe-logo-flame" stroke-width="0">
      <g transform="matrix(0, 1, -1, 0, 5.34922, 1.06201)">
       <g  id="g10604" stroke-width="0">
        <g  id="g10606" stroke-width="0">
         <title  id="title10608">element:JP2</title>
         <g  id="g10610" stroke-width="0">
          <title  id="title10612">package:SFE-LOGO-FLAME</title>
          <title  id="title10614">polygon</title>
         </g>
        </g>
        <g  id="g10616" stroke-width="0">
         <path  id="path10618" d="m3.5024,1.032c0,0,0.0904,0.3856,-0.2008,0.44C3.0984,1.508,2.7712,1.3072,2.6064,1.1064,2.4024,0.8584,2.428,0.6632,2.5872,0.489602c0.2376,-0.2616,0.644002,-0.16,0.644002,-0.16C3.2312,0.329602,2.4856,-0.3248,1.7088,0.2104,1.0184,0.686402,1.2168,1.3352,1.8392,1.9008,2.4016,2.4128,1.9544,2.9736,1.388,2.9,0.9992,2.8504,0.84,2.54,0.9336,2.348,1.0152,2.184,1.2928,2.084,1.2928,2.084c0,0,-0.32,-0.1304,-0.696798,0.0128C0.2576,2.2232,-0.0216,2.5032,0.0008,3.2032l0,3.248c0,0,0.3504,-0.432,0.759998,-0.8704C1.2224,5.0864,1.432,4.752,1.9048,4.792,2.8,4.8464,3.4464,4.4488,3.8856,3.8112,4.7304,2.5856,4.0696,1.2152,3.5024,1.032z" fill="#ffffff" stroke-width="0"/>
        </g>
       </g>
      </g>
     </g>
    </g>
    <g  id="g6124">
     <g transform="matrix(1, 0, 0, 1, 34.4303, -0.0885098)">
      <g  id="g6137">
       <g transform="matrix(0, 0.168761, 0.168761, 0, -444.163, -319.879)">
        <g  id="g10763">
         <path  id="path5031" fill-opacity="1" d="m2053.59,2596c-3.2,0,-5.6,-2.4,-5.6,-5.6l0,0c0,-3.2,2.4,-5.6,5.6,-5.6l26.4,0c3.2,0,5.6,2.4,5.6,5.6l0,0c0,3.2,-2.4,5.6,-5.6,5.6" stroke="none" fill="#8c8c8c" style="fill-rule:evenodd;"/>
         <path  id="path5035" fill-opacity="1" d="m2053.59,2524c-3.2,0,-5.6,-2.4,-5.6,-5.6l0,0c0,-3.2,2.4,-5.6,5.6,-5.6l26.4,0c3.2,0,5.6,2.4,5.6,5.6l0,0c0,3.2,-2.4,5.6,-5.6,5.6" stroke="none" fill="#8c8c8c" style="fill-rule:evenodd;"/>
         <path  id="path5039" fill-opacity="1" d="m2053.59,2548c-3.2,0,-5.6,-2.4,-5.6,-5.6l0,0c0,-3.2,2.4,-5.6,5.6,-5.6l26.4,0c3.2,0,5.6,2.4,5.6,5.6l0,0c0,3.2,-2.4,5.6,-5.6,5.6" stroke="none" fill="#8c8c8c" style="fill-rule:evenodd;"/>
         <path  id="path5043" fill-opacity="1" d="m2053.59,2572c-3.2,0,-5.6,-2.4,-5.6,-5.6l0,0c0,-3.2,2.4,-5.6,5.6,-5.6l26.4,0c3.2,0,5.6,2.4,5.6,5.6l0,0c0,3.2,-2.4,5.6,-5.6,5.6" stroke="none" fill="#8c8c8c" style="fill-rule:evenodd;"/>
        </g>
       </g>
       <g transform="matrix(0, 0.168761, 0.168761, 0, -444.163, -318.539)">
        <g  id="g10757" style="stroke-miterlimit:10;stroke-dasharray:none" stroke-width="4.7811">
         <path  id="path5033" fill-opacity="1" d="m1955.2,2596c-3.2,0,-5.6,-2.4,-5.6,-5.6l0,0c0,-3.2,2.4,-5.6,5.6,-5.6l26.4,0c3.2,0,5.6,2.4,5.6,5.6l0,0c0,3.2,-2.4,5.6,-5.6,5.6" stroke="none" fill="#8c8c8c" style="fill-rule:evenodd;"/>
         <path  id="path5037" fill-opacity="1" d="m1955.2,2524c-3.2,0,-5.6,-2.4,-5.6,-5.6l0,0c0,-3.2,2.4,-5.6,5.6,-5.6l26.4,0c3.2,0,5.6,2.4,5.6,5.6l0,0c0,3.2,-2.4,5.6,-5.6,5.6" stroke="none" fill="#8c8c8c" style="fill-rule:evenodd;"/>
         <path  id="path5041" fill-opacity="1" d="m1955.2,2548c-3.2,0,-5.6,-2.4,-5.6,-5.6l0,0c0,-3.2,2.4,-5.6,5.6,-5.6l26.4,0c3.2,0,5.6,2.4,5.6,5.6l0,0c0,3.2,-2.4,5.6,-5.6,5.6" stroke="none" fill="#8c8c8c" style="fill-rule:evenodd;"/>
         <path  id="path5045" fill-opacity="1" d="m1955.2,2572c-3.2,0,-5.6,-2.4,-5.6,-5.6l0,0c0,-3.2,2.4,-5.6,5.6,-5.6l26.4,0c3.2,0,5.6,2.4,5.6,5.6l0,0c0,3.2,-2.4,5.6,-5.6,5.6" stroke="none" fill="#8c8c8c" style="fill-rule:evenodd;"/>
        </g>
       </g>
       <path  id="path5021" fill-opacity="1" d="m-4.98083,26.2399c-5.40034,0,-10.8007,0,-16.201,0,0,-3.39856,0,-6.79712,0,-10.1957,5.40034,0,10.8007,0,16.201,0,0,0.849634,0,1.69928,0,2.54893,-0.538932,-0.04496,-1.11566,0.162804,-1.4851,0.6797,-0.410088,0.464381,-0.576492,1.19166,-0.540036,1.86921,-0.013512,0.666122,0.310296,1.25473,0.675048,1.69928,0.364644,0.418842,0.848388,0.707869,1.35008,0.764674,0,0.934606,0,1.78425,0,2.63389" stroke="#1d1d1d" fill="#1d1d1d" stroke-opacity="1" style="fill-rule:evenodd;stroke-linecap:square;stroke-linejoin:miter;stroke-miterlimit:10;stroke-dasharray:none" stroke-width="0.905214"/>
      </g>
     </g>
    </g>
    <g transform="scale(0.96150546,1.0400357)">
     <g  id="text6168" xml:space="preserve" xmlns:xml="http://www.w3.org/XML/1998/namespace" fill-opacity="1" stroke="none" fill="#ffffff" font-size="0" style="font-style:normal;font-weight:normal;line-height:125%;letter-spacing:0px;word-spacing:0px;font-family:OCRA">
      <text  id="tspan6170" fill-opacity="1" x="13.1551" y="7.19167" fill="#ffffff" font-size="0" style="font-style:normal;font-variant:normal;font-weight:bold;font-stretch:normal;text-align:start;line-height:125%;writing-mode:lr-tb;text-anchor:start;font-family:OCRA;-inkscape-font-specification:OCRA Bold">RTC Module</text>
     </g>
    </g>
    <g  id="g3588">
     <g transform="matrix(-1.24973, 0, 0, -1.24349, 43.3655, 106.378)">
      <g  id="g3035" stroke-width="0">
       <title  id="title3037">element:JP1</title>
       <g  id="g3039" stroke-width="0">
        <title  id="title3041">package:1X07</title>
        <line  id="line3067" y1="40.32" y2="40.32" stroke="#ffffff" x1="21.6" x2="24.48" style="stroke-linecap:round" stroke-width="0.4608"/>
        <line  id="line3069" y1="40.32" y2="41.76" stroke="#ffffff" x1="24.48" x2="25.92" style="stroke-linecap:round" stroke-width="0.4608"/>
        <line  id="line3071" y1="44.64" y2="46.08" stroke="#ffffff" x1="25.92" x2="24.48" style="stroke-linecap:round" stroke-width="0.4608"/>
        <line  id="line3073" y1="41.76" y2="40.32" stroke="#ffffff" x1="25.92" x2="27.36" style="stroke-linecap:round" stroke-width="0.4608"/>
        <line  id="line3075" y1="40.32" y2="40.32" stroke="#ffffff" x1="27.36" x2="30.24" style="stroke-linecap:round" stroke-width="0.4608"/>
        <line  id="line3077" y1="40.32" y2="41.76" stroke="#ffffff" x1="30.24" x2="31.68" style="stroke-linecap:round" stroke-width="0.4608"/>
        <line  id="line3079" y1="44.64" y2="46.08" stroke="#ffffff" x1="31.68" x2="30.24" style="stroke-linecap:round" stroke-width="0.4608"/>
        <line  id="line3081" y1="46.08" y2="46.08" stroke="#ffffff" x1="30.24" x2="27.36" style="stroke-linecap:round" stroke-width="0.4608"/>
        <line  id="line3083" y1="46.08" y2="44.64" stroke="#ffffff" x1="27.36" x2="25.92" style="stroke-linecap:round" stroke-width="0.4608"/>
        <line  id="line3085" y1="41.76" y2="40.32" stroke="#ffffff" x1="14.4" x2="15.84" style="stroke-linecap:round" stroke-width="0.4608"/>
        <line  id="line3087" y1="40.32" y2="40.32" stroke="#ffffff" x1="15.84" x2="18.72" style="stroke-linecap:round" stroke-width="0.4608"/>
        <line  id="line3089" y1="40.32" y2="41.76" stroke="#ffffff" x1="18.72" x2="20.16" style="stroke-linecap:round" stroke-width="0.4608"/>
        <line  id="line3091" y1="44.64" y2="46.08" stroke="#ffffff" x1="20.16" x2="18.72" style="stroke-linecap:round" stroke-width="0.4608"/>
        <line  id="line3093" y1="46.08" y2="46.08" stroke="#ffffff" x1="18.72" x2="15.84" style="stroke-linecap:round" stroke-width="0.4608"/>
        <line  id="line3095" y1="46.08" y2="44.64" stroke="#ffffff" x1="15.84" x2="14.4" style="stroke-linecap:round" stroke-width="0.4608"/>
        <line  id="line3097" y1="40.32" y2="41.76" stroke="#ffffff" x1="21.6" x2="20.16" style="stroke-linecap:round" stroke-width="0.4608"/>
        <line  id="line3099" y1="44.64" y2="46.08" stroke="#ffffff" x1="20.16" x2="21.6" style="stroke-linecap:round" stroke-width="0.4608"/>
        <line  id="line3101" y1="46.08" y2="46.08" stroke="#ffffff" x1="24.48" x2="21.6" style="stroke-linecap:round" stroke-width="0.4608"/>
        <line  id="line3103" y1="40.32" y2="40.32" stroke="#ffffff" x1="4.32" x2="7.2" style="stroke-linecap:round" stroke-width="0.4608"/>
        <line  id="line3105" y1="40.32" y2="41.76" stroke="#ffffff" x1="7.2" x2="8.64" style="stroke-linecap:round" stroke-width="0.4608"/>
        <line  id="line3107" y1="44.64" y2="46.08" stroke="#ffffff" x1="8.64" x2="7.2" style="stroke-linecap:round" stroke-width="0.4608"/>
        <line  id="line3109" y1="41.76" y2="40.32" stroke="#ffffff" x1="8.64" x2="10.08" style="stroke-linecap:round" stroke-width="0.4608"/>
        <line  id="line3111" y1="40.32" y2="40.32" stroke="#ffffff" x1="10.08" x2="12.96" style="stroke-linecap:round" stroke-width="0.4608"/>
        <line  id="line3113" y1="40.32" y2="41.76" stroke="#ffffff" x1="12.96" x2="14.4" style="stroke-linecap:round" stroke-width="0.4608"/>
        <line  id="line3115" y1="44.64" y2="46.08" stroke="#ffffff" x1="14.4" x2="12.96" style="stroke-linecap:round" stroke-width="0.4608"/>
        <line  id="line3117" y1="46.08" y2="46.08" stroke="#ffffff" x1="12.96" x2="10.08" style="stroke-linecap:round" stroke-width="0.4608"/>
        <line  id="line3119" y1="46.08" y2="44.64" stroke="#ffffff" x1="10.08" x2="8.64" style="stroke-linecap:round" stroke-width="0.4608"/>
        <line  id="line3121" y1="41.76" y2="44.64" stroke="#ffffff" x1="2.88" x2="2.88" style="stroke-linecap:round" stroke-width="0.4608"/>
        <line  id="line3123" y1="40.32" y2="41.76" stroke="#ffffff" x1="4.32" x2="2.88" style="stroke-linecap:round" stroke-width="0.4608"/>
        <line  id="line3125" y1="44.64" y2="46.08" stroke="#ffffff" x1="2.88" x2="4.32" style="stroke-linecap:round" stroke-width="0.4608"/>
        <line  id="line3127" y1="46.08" y2="46.08" stroke="#ffffff" x1="7.2" x2="4.32" style="stroke-linecap:round" stroke-width="0.4608"/>
        <line  id="line3129" y1="41.7582" y2="44.6382" stroke="#ffffff" x1="31.6803" x2="31.6803" style="stroke-linecap:round" stroke-width="0.4608"/>
       </g>
      </g>
     </g>
     <g transform="matrix(-1.24973, 0, 0, -1.24349, 43.3655, 106.378)">
      <circle  r="1.6416" connectorname="SS" d="m 9.2519999,54 c 0,1.133288 -0.9187118,2.052 -2.0520001,2.052 -1.1332883,0 -2.052,-0.918712 -2.052,-2.052 0,-1.133288 0.9187117,-2.052 2.052,-2.052 1.1332883,0 2.0520001,0.918712 2.0520001,2.052 z" cx="5.76" cy="43.2" stroke="#9a916c" fill="none" stroke-width="0.9792"/>
     </g>
     <g transform="matrix(-1.24973, 0, 0, -1.24349, 43.3655, 106.378)">
      <circle  r="1.6416" connectorname="MOSI" d="m 16.452,54 c 0,1.133288 -0.918712,2.052 -2.052,2.052 -1.133289,0 -2.052,-0.918712 -2.052,-2.052 0,-1.133288 0.918711,-2.052 2.052,-2.052 1.133288,0 2.052,0.918712 2.052,2.052 z" cx="11.52" cy="43.2" stroke="#9a916c" fill="none" stroke-width="0.9792"/>
     </g>
     <g transform="matrix(-1.24973, 0, 0, -1.24349, 43.3655, 106.378)">
      <circle  r="1.6416" connectorname="MISO" d="m 23.652,54 c 0,1.133288 -0.918711,2.052 -2.052,2.052 -1.133288,0 -2.052,-0.918712 -2.052,-2.052 0,-1.133288 0.918712,-2.052 2.052,-2.052 1.133289,0 2.052,0.918712 2.052,2.052 z" cx="17.28" cy="43.2" stroke="#9a916c" fill="none" stroke-width="0.9792"/>
     </g>
     <g transform="matrix(-1.24973, 0, 0, -1.24349, 43.3655, 106.378)">
      <circle  r="1.6416" connectorname="SCLK" d="m 30.851999,54 c 0,1.133288 -0.918711,2.052 -2.052,2.052 -1.133288,0 -2.052,-0.918712 -2.052,-2.052 0,-1.133288 0.918712,-2.052 2.052,-2.052 1.133289,0 2.052,0.918712 2.052,2.052 z" cx="23.04" cy="43.2" stroke="#9a916c" fill="none" stroke-width="0.9792"/>
     </g>
     <g transform="matrix(-1.24973, 0, 0, -1.24349, 43.3655, 106.378)">
      <circle  r="1.6416" connectorname="INT/SQW" d="m 38.052,54 c 0,1.133288 -0.918712,2.052 -2.052,2.052 -1.133288,0 -2.052,-0.918712 -2.052,-2.052 0,-1.133288 0.918712,-2.052 2.052,-2.052 1.133288,0 2.052,0.918712 2.052,2.052 z" cx="28.8" cy="43.2" stroke="#9a916c" fill="none" stroke-width="0.9792"/>
     </g>
     <g transform="matrix(0,-1,1,0,0,0)">
      <g  id="text3304" xml:space="preserve" xmlns:xml="http://www.w3.org/XML/1998/namespace" fill-opacity="1" stroke="none" fill="#ffffff" font-size="0" style="font-style:normal;font-variant:normal;font-weight:bold;font-stretch:normal;line-height:125%;letter-spacing:0px;word-spacing:0px;font-family:OCRABold;-inkscape-font-specification:OCRABold Bold">
       <text  id="tspan3306" fill-opacity="1" x="-48.7514" y="8.97548" fill="#ffffff" font-size="0" style="font-style:normal;font-variant:normal;font-weight:bold;font-stretch:normal;font-family:OCRA;-inkscape-font-specification:OCRA Bold">SDA</text>
      </g>
     </g>
     <g transform="matrix(0,-1,1,0,0,0)">
      <g  id="text3308" xml:space="preserve" xmlns:xml="http://www.w3.org/XML/1998/namespace" fill-opacity="1" stroke="none" fill="#ffffff" font-size="0" style="font-style:normal;font-variant:normal;font-weight:bold;font-stretch:normal;line-height:125%;letter-spacing:0px;word-spacing:0px;font-family:OCRABold;-inkscape-font-specification:OCRABold Bold">
       <text  id="tspan3310" fill-opacity="1" x="-48.7514" y="16.2475" fill="#ffffff" font-size="0" style="font-style:normal;font-variant:normal;font-weight:bold;font-stretch:normal;font-family:OCRA;-inkscape-font-specification:OCRA Bold">SCL</text>
      </g>
     </g>
     <g transform="matrix(0,-1,1,0,0,0)">
      <g  id="text3312" xml:space="preserve" xmlns:xml="http://www.w3.org/XML/1998/namespace" fill-opacity="1" stroke="none" fill="#ffffff" font-size="0" style="font-style:normal;font-variant:normal;font-weight:bold;font-stretch:normal;line-height:125%;letter-spacing:0px;word-spacing:0px;font-family:OCRABold;-inkscape-font-specification:OCRABold Bold">
       <text  id="tspan3314" fill-opacity="1" x="-48.8423" y="23.5196" fill="#ffffff" font-size="0" style="font-style:normal;font-variant:normal;font-weight:bold;font-stretch:normal;font-family:OCRA;-inkscape-font-specification:OCRA Bold">SQW</text>
      </g>
     </g>
     <g transform="matrix(0,-1,1,0,0,0)">
      <g  id="text3316" xml:space="preserve" xmlns:xml="http://www.w3.org/XML/1998/namespace" fill-opacity="1" stroke="none" fill="#ffffff" font-size="0" style="font-style:normal;font-variant:normal;font-weight:bold;font-stretch:normal;line-height:125%;letter-spacing:0px;word-spacing:0px;font-family:OCRABold;-inkscape-font-specification:OCRABold Bold">
       <text  id="tspan3318" fill-opacity="1" x="-48.8399" y="30.7916" fill="#ffffff" font-size="0" style="font-style:normal;font-variant:normal;font-weight:bold;font-stretch:normal;font-family:OCRA;-inkscape-font-specification:OCRA Bold">GND</text>
      </g>
     </g>
     <g transform="matrix(0,-1,1,0,0,0)">
      <g  id="text3320" xml:space="preserve" xmlns:xml="http://www.w3.org/XML/1998/namespace" fill-opacity="1" stroke="none" fill="#ffffff" font-size="0" style="font-style:normal;font-variant:normal;font-weight:bold;font-stretch:normal;line-height:125%;letter-spacing:0px;word-spacing:0px;font-family:OCRABold;-inkscape-font-specification:OCRABold Bold">
       <text  id="tspan3322" fill-opacity="1" x="-48.7199" y="38.0637" fill="#ffffff" font-size="0" style="font-style:normal;font-variant:normal;font-weight:bold;font-stretch:normal;font-family:OCRA;-inkscape-font-specification:OCRA Bold">5V</text>
      </g>
     </g>
    </g>
    <g  id="g3641">
     <rect  width="8.0279" id="rect5931" fill-opacity="1" x="2.37581" stroke="#8c8c8c" y="20.4971" fill="#8c8c8c" height="8.0279" stroke-opacity="1" style="stroke-linecap:butt;" stroke-width="0.772096"/>
     <rect  width="8.0279" id="rect5931-5" fill-opacity="1" x="45.463" stroke="#8c8c8c" y="20.4971" fill="#8c8c8c" height="8.0279" stroke-opacity="1" style="stroke-linecap:butt;" stroke-width="0.772096"/>
    </g>
   </g>
  </g>
  <g transform="matrix(1.06664, 0, 0, 1.08909, 38.9618, -19.0358)">
   <path  id="path3613" fill-opacity="1" d="m-27.0933,22.6776a4.11921,4.03427,0,1,1,-8.23841,0,4.11921,4.03427,0,1,1,8.23841,0z" stroke="none" fill="#ffffff"/>
  </g>
  <g transform="matrix(1.06664, 0, 0, 1.08909, 84.3232, 26.3256)">
   <path  id="path3613-2" fill-opacity="1" d="m-27.0933,22.6776a4.11921,4.03427,0,1,1,-8.23841,0,4.11921,4.03427,0,1,1,8.23841,0z" stroke="none" fill="#ffffff"/>
  </g>
 </g>
 <rect  width="5.57967" id="connector5pin" x="33.4308" y="49.8088" fill="none" height="5.58356"/>
 <rect  width="5.75928" id="connector6pin" x="26.0517" y="49.8088" fill="none" height="5.66929"/>
 <rect  width="5.66929" id="connector7pin" x="18.9426" y="49.8088" fill="none" height="5.67355"/>
 <rect  width="5.5793" id="connector8pin" x="11.7435" y="49.8988" fill="none" height="5.66929"/>
 <rect  width="5.72435" id="connector9pin" x="4.57936" y="49.7999" fill="none" height="5.58818"/>
</g>
</g></g></g><g partID='60130'><line stroke-linecap='round' stroke='#6c2710' x1='199.066' y1='90.8723' x2='176.4' y2='103.672' stroke-width='3.2' /><line stroke-linecap='round' stroke='#8c3b00' x1='199.066' y1='90.8723' x2='176.4' y2='103.672' stroke-width='1.6' /></g><g partID='60160'><line stroke-linecap='round' stroke='#dc00dc' x1='104.401' y1='146.874' x2='176.4' y2='110.872' stroke-width='3.2' /><line stroke-linecap='round' stroke='#fa50e6' x1='104.401' y1='146.874' x2='176.4' y2='110.872' stroke-width='1.6' /></g><g partID='60330'><line stroke-linecap='round' stroke='#d6d63a' x1='53.9929' y1='60.4514' x2='133.2' y2='89.2723' stroke-width='3.2' /><line stroke-linecap='round' stroke='#fff800' x1='53.9929' y1='60.4514' x2='133.2' y2='89.2723' stroke-width='1.6' /></g><g partID='60400'><line stroke-linecap='round' stroke='#00a0c6' x1='133.2' y1='96.4723' x2='54.1324' y2='53.3597' stroke-width='3.2' /><line stroke-linecap='round' stroke='#33ffc5' x1='133.2' y1='96.4723' x2='54.1324' y2='53.3597' stroke-width='1.6' /></g><g partID='60760'><line stroke-linecap='round' stroke='#dc00dc' x1='75.6005' y1='146.874' x2='89.9995' y2='110.872' stroke-width='3.2' /><line stroke-linecap='round' stroke='#fa50e6' x1='75.6005' y1='146.874' x2='89.9995' y2='110.872' stroke-width='1.6' /></g><g partID='60830'><line stroke-linecap='round' stroke='#dc00dc' x1='46.8005' y1='146.874' x2='61.1995' y2='110.872' stroke-width='3.2' /><line stroke-linecap='round' stroke='#fa50e6' x1='46.8005' y1='146.874' x2='61.1995' y2='110.872' stroke-width='1.6' /></g><g partID='60900'><line stroke-linecap='round' stroke='#dc00dc' x1='18.0005' y1='146.874' x2='32.3995' y2='110.872' stroke-width='3.2' /><line stroke-linecap='round' stroke='#fa50e6' x1='18.0005' y1='146.874' x2='32.3995' y2='110.872' stroke-width='1.6' /></g><g partID='59920' id='partLabel'><g transform='translate(58.0919,0)' ><g font-size='9' font-style='normal' font-weight='normal' fill='#000000' font-family="'DroidSans'" id='breadboardLabel' fill-opacity='1' stroke='none' ><text x='0' y='6.75'>DS1307 RTC Clock</text></g></g></g><g partID='59250' id='partLabel'><g transform='translate(349.339,14.6056)' ><g font-size='9' font-style='normal' font-weight='normal' fill='#000000' font-family="'DroidSans'" id='breadboardLabel' fill-opacity='1' stroke='none' ><text x='0' y='6.75'>GPS module</text></g></g></g><g partID='60740' id='partLabel'><g transform='translate(21.6,96.0748)' ><g font-size='9' font-style='normal' font-weight='normal' fill='#000000' font-family="'DroidSans'" id='breadboardLabel' fill-opacity='1' stroke='none' ><text x='0' y='6.75'>Neopixel LED strip</text></g></g></g></svg>